<?xml version="1.0" encoding="UTF-8" standalone="no"?>
<svg
   xmlns:dc="http://purl.org/dc/elements/1.1/"
   xmlns:cc="http://creativecommons.org/ns#"
   xmlns:rdf="http://www.w3.org/1999/02/22-rdf-syntax-ns#"
   xmlns:svg="http://www.w3.org/2000/svg"
   xmlns="http://www.w3.org/2000/svg"
   xmlns:sodipodi="http://sodipodi.sourceforge.net/DTD/sodipodi-0.dtd"
   xmlns:inkscape="http://www.inkscape.org/namespaces/inkscape"
   width="92.935593mm"
   height="128.02925mm"
   viewBox="0 0 92.935593 128.02925"
   version="1.1"
   id="svg53"
   inkscape:version="1.0 (4035a4fb49, 2020-05-01)"
   sodipodi:docname="logo.svg">
  <defs
     id="defs47" />
  <sodipodi:namedview
     id="base"
     pagecolor="#ffffff"
     bordercolor="#666666"
     borderopacity="1.0"
     inkscape:pageopacity="0.0"
     inkscape:pageshadow="2"
     inkscape:zoom="0.98994949"
     inkscape:cx="-428.23844"
     inkscape:cy="197.56983"
     inkscape:document-units="mm"
     inkscape:current-layer="layer1"
     inkscape:document-rotation="0"
     showgrid="false"
     inkscape:window-width="2736"
     inkscape:window-height="1730"
     inkscape:window-x="-11"
     inkscape:window-y="-11"
     inkscape:window-maximized="1" />
  <metadata
     id="metadata50">
    <rdf:RDF>
      <cc:Work
         rdf:about="">
        <dc:format>image/svg+xml</dc:format>
        <dc:type
           rdf:resource="http://purl.org/dc/dcmitype/StillImage" />
        <dc:title></dc:title>
      </cc:Work>
    </rdf:RDF>
  </metadata>
  <g
     transform="translate(-59.365539,-84.152041)"
     inkscape:label="Ebene 1"
     inkscape:groupmode="layer"
     id="layer1">
    <path
       d="m 59.365539,87.636794 c 3.07447,-0.66128 6.22248,-1.08188 9.36229,-1.256 1.81394,-0.1006 3.63438,-0.19805 5.44906,-0.11162 1.89928,0.0905 3.81157,0.23056 5.66816,0.6411 1.83613,0.40601 3.56554,1.19661 5.34832,1.79492 1.571859,1.10708 3.332849,1.98541 4.715569,3.32124 1.548091,1.4956 2.81636,3.27392 3.983332,5.08267 2.453999,3.803606 4.41216,8.625716 5.925849,12.854216 1.187561,3.31744 4.777451,15.09102 5.586281,17.70804 3.35623,11.50178 7.18569,22.95479 8.51495,34.93017 0.40898,3.68452 0.71158,7.41012 0.49014,11.11065 -0.51473,8.60196 -1.91696,10.13682 -5.18155,17.59508 -3.96689,5.17599 -4.08399,6.51111 -9.720881,9.60263 -0.641311,0.35171 -1.44698,0.215 -2.17075,0.32057 -3.64857,0.53216 -5.38847,1.23616 -8.981679,0.0393 -1.407641,-0.46889 -2.616001,-1.40065 -3.924011,-2.10095 -1.0122,-1.19954 -2.24271,-2.2447 -3.03659,-3.59865 -0.8117,-1.38435 -1.33945,-2.93873 -1.71181,-4.49969 -0.7894,-3.30917 -0.66853,-6.38231 0.48021,-9.60345 1.62951,-4.56927 3.78282,-6.66079 6.754569,-10.51057 10.513142,-10.91733 22.728942,-19.9721 34.540332,-29.39864 10.49814,-8.37846 8.5291,-6.83164 18.42429,-15.22815 2.31434,-2.50727 4.89733,-4.79091 6.94302,-7.52178 1.72944,-2.30873 3.31398,-4.79665 4.31203,-7.50312 1.74484,-4.73163 1.65434,-9.36625 -1.13107,-13.688456 -3.44912,-5.35212 -6.70867,-5.68912 -12.23845,-7.99236 -2.47504,-0.31272 -4.93353,-1.06316 -7.42511,-0.93816 -5.3546,0.26864 -11.65012,3.36698 -14.59682,7.91773 -1.5635,2.41461 -1.63753,5.589016 -1.67683,8.465356 -0.10771,7.88451 2.66816,15.59144 4.7431,23.02063 4.97603,12.38637 4.56856,12.08568 10.44404,23.92263 1.80014,3.62665 3.74008,7.18216 5.61265,10.77192 2.11751,4.05932 6.93522,13.09987 8.96475,17.59395 0.9529,2.11 1.71471,4.3012 2.57206,6.45181 0.84824,3.81795 2.22751,8.51649 -0.6183,11.96152 -4.16085,5.03695 -1.43804,1.64182 -3.56811,2.36128 -1.45706,0.49214 -2.88067,1.07828 -4.32101,1.61742 -6.43769,2.11098 -12.9302,4.05085 -19.40263,6.05258 -2.12052,0.73615 -4.32186,1.01719 -6.55275,1.05177 -0.99267,0.0238 -1.98258,-0.0527 -2.97134,-0.12618 0,0 -3.19241,2.2832 -3.19241,2.2832 v 0 c 0.99783,0.0751 1.99647,0.1597 2.99832,0.14599 0.60677,0.003 1.35999,0.0161 1.96987,-0.0318 1.60865,-0.12672 3.19209,-0.47829 4.72308,-0.98125 6.52992,-2.07834 13.07861,-4.09563 19.60439,-6.18655 5.06219,-1.83645 5.91118,-1.91132 11.24787,-5.27632 1.05599,-0.66585 2.08102,-1.45214 2.83527,-2.44689 2.70675,-3.56984 1.15425,-8.26987 0.1864,-12.07048 -0.91465,-2.12777 -1.74341,-4.29456 -2.74397,-6.38331 -1.28634,-2.68533 -2.72091,-5.29727 -4.1123,-7.92971 -7.6269,-14.42978 -15.89194,-28.61869 -21.15753,-44.15081 -2.07689,-7.72219 -4.68482,-14.90002 -4.36609,-23.05074 0.11157,-2.85315 0.96588,-5.655996 1.91325,-8.349566 0.3966,-1.12765 1.00419,-2.37094 2.05664,-2.93771 5.29814,-2.85317 8.47468,-1.57086 14.08228,-0.91975 5.4666,2.24352 8.61765,2.52451 12.02707,7.79083 4.59972,7.104866 1.49519,14.647666 -3.04976,20.740856 -2.01687,2.70393 -4.56922,4.96366 -6.85382,7.44549 -9.8854,8.42459 -7.78358,6.76782 -18.3318,15.17941 -11.95041,9.52974 -24.296001,18.69111 -34.991311,29.66873 -3.02934,3.93541 -5.21379,6.04669 -6.84418,10.72837 -1.14431,3.28591 -1.2213,6.4276 -0.40032,9.78471 0.39057,1.5971 0.93594,3.18569 1.76302,4.60666 0.81133,1.3939 2.05794,2.48388 3.08691,3.72582 1.3286,0.73643 2.55099,1.71047 3.98579,2.20934 1.400601,0.48696 2.909691,0.69565 4.392501,0.70368 4.847759,0.0265 8.653,-1.98027 12.88618,-4.39581 1.84073,-1.05034 3.62164,-2.27695 5.10282,-3.79275 1.70849,-1.74839 2.90882,-3.92962 4.36323,-5.89444 3.14796,-7.51201 4.48753,-9.00279 4.90857,-17.61834 0.18088,-3.70128 -0.15793,-7.42076 -0.5861,-11.10165 -1.39403,-11.98395 -5.16722,-23.4697 -8.40231,-35.03025 -0.96739,-3.37162 -1.89887,-6.75376 -2.90216,-10.11486 -1.50388,-5.03806 -2.91528,-9.73007 -5.09701,-14.5144 -1.73419,-3.802906 -4.19192,-8.423306 -7.234142,-11.421296 -1.390629,-1.37041 -3.17346,-2.27522 -4.760198,-3.41282 -1.79765,-0.61771 -3.540551,-1.42682 -5.392951,-1.85312 -1.85682,-0.42732 -3.7717,-0.5826 -5.67382,-0.69373 -1.79833,-0.10506 -3.60407,-0.0263 -5.40399,0.0466 -3.04337,0.12314 -6.10759,0.45718 -9.10564,0.99928 0,0 -3.13696,2.38803 -3.13696,2.38803 z"
       id="path26"
       style="fill:#ffffff;fill-opacity:1;fill-rule:nonzero;stroke:none;stroke-width:0.264583" />
  </g>
</svg>
